<mxfile host="app.diagrams.net" modified="2024-01-09T20:32:49.526Z" agent="Mozilla/5.0 (Windows NT 10.0; Win64; x64) AppleWebKit/537.36 (KHTML, like Gecko) Chrome/120.0.0.0 Safari/537.36" etag="jVQwQikznHn_6zv6Ar1V" version="22.1.17" type="device">
  <diagram name="Page-1" id="l7wFHibvohgy5QNv9NbM">
    <mxGraphModel dx="1050" dy="565" grid="1" gridSize="10" guides="1" tooltips="1" connect="1" arrows="1" fold="1" page="1" pageScale="1" pageWidth="850" pageHeight="1100" math="0" shadow="0">
      <root>
        <mxCell id="0" />
        <mxCell id="1" parent="0" />
        <mxCell id="RDMaMfMabzcHabAIdNRv-10" style="edgeStyle=orthogonalEdgeStyle;rounded=0;orthogonalLoop=1;jettySize=auto;html=1;entryX=0;entryY=0.5;entryDx=0;entryDy=0;" edge="1" parent="1" source="RDMaMfMabzcHabAIdNRv-2" target="RDMaMfMabzcHabAIdNRv-6">
          <mxGeometry relative="1" as="geometry" />
        </mxCell>
        <mxCell id="RDMaMfMabzcHabAIdNRv-2" value="MULTIMODAL LEARNING&lt;br&gt;OR COMBINED MODEL" style="rounded=0;whiteSpace=wrap;html=1;" vertex="1" parent="1">
          <mxGeometry x="360" y="190" width="370" height="270" as="geometry" />
        </mxCell>
        <mxCell id="RDMaMfMabzcHabAIdNRv-7" style="rounded=0;orthogonalLoop=1;jettySize=auto;html=1;" edge="1" parent="1" source="RDMaMfMabzcHabAIdNRv-3" target="RDMaMfMabzcHabAIdNRv-2">
          <mxGeometry relative="1" as="geometry" />
        </mxCell>
        <mxCell id="RDMaMfMabzcHabAIdNRv-3" value="ECGs: waveforms/csv extractions" style="rounded=0;whiteSpace=wrap;html=1;fillColor=#fff2cc;strokeColor=#d6b656;" vertex="1" parent="1">
          <mxGeometry x="110" y="190" width="160" height="70" as="geometry" />
        </mxCell>
        <mxCell id="RDMaMfMabzcHabAIdNRv-8" style="edgeStyle=orthogonalEdgeStyle;rounded=0;orthogonalLoop=1;jettySize=auto;html=1;" edge="1" parent="1" source="RDMaMfMabzcHabAIdNRv-4" target="RDMaMfMabzcHabAIdNRv-2">
          <mxGeometry relative="1" as="geometry" />
        </mxCell>
        <mxCell id="RDMaMfMabzcHabAIdNRv-4" value="Risk Factors: csv diagnosis factors and prognosis factors and complications of MI" style="rounded=0;whiteSpace=wrap;html=1;fillColor=#fff2cc;strokeColor=#d6b656;" vertex="1" parent="1">
          <mxGeometry x="110" y="280" width="160" height="90" as="geometry" />
        </mxCell>
        <mxCell id="RDMaMfMabzcHabAIdNRv-9" style="rounded=0;orthogonalLoop=1;jettySize=auto;html=1;entryX=0;entryY=0.75;entryDx=0;entryDy=0;" edge="1" parent="1" source="RDMaMfMabzcHabAIdNRv-5" target="RDMaMfMabzcHabAIdNRv-2">
          <mxGeometry relative="1" as="geometry" />
        </mxCell>
        <mxCell id="RDMaMfMabzcHabAIdNRv-5" value="Echocardiograms: .mp3 videos and frames of heart muscle&amp;nbsp;" style="rounded=0;whiteSpace=wrap;html=1;fillColor=#fff2cc;strokeColor=#d6b656;" vertex="1" parent="1">
          <mxGeometry x="110" y="390" width="160" height="70" as="geometry" />
        </mxCell>
        <mxCell id="RDMaMfMabzcHabAIdNRv-6" value="Myocardial infarction?&lt;br&gt;Complications possible?" style="rounded=0;whiteSpace=wrap;html=1;fillColor=#f8cecc;strokeColor=#b85450;" vertex="1" parent="1">
          <mxGeometry x="810" y="290" width="160" height="70" as="geometry" />
        </mxCell>
      </root>
    </mxGraphModel>
  </diagram>
</mxfile>
